<?xml version="1.0" encoding="UTF-8" standalone="no"?>
<svg
   id="_1"
   data-name="1"
   viewBox="0 0 870.73171 757.56762"
   version="1.1"
   sodipodi:docname="it-jobs-in-canada.svg"
   width="870.73169"
   height="757.56763"
   inkscape:version="1.1.1 (3bf5ae0d25, 2021-09-20)"
   xmlns:inkscape="http://www.inkscape.org/namespaces/inkscape"
   xmlns:sodipodi="http://sodipodi.sourceforge.net/DTD/sodipodi-0.dtd"
   xmlns="http://www.w3.org/2000/svg"
   xmlns:svg="http://www.w3.org/2000/svg">
  <sodipodi:namedview
     id="namedview1196"
     pagecolor="#ffffff"
     bordercolor="#666666"
     borderopacity="1.0"
     inkscape:pageshadow="2"
     inkscape:pageopacity="0.0"
     inkscape:pagecheckerboard="0"
     showgrid="false"
     inkscape:zoom="0.85254219"
     inkscape:cx="398.22076"
     inkscape:cy="348.95634"
     inkscape:window-width="1920"
     inkscape:window-height="991"
     inkscape:window-x="-9"
     inkscape:window-y="-9"
     inkscape:window-maximized="1"
     inkscape:current-layer="_1" />
  <defs
     id="defs1013">
    <style
       id="style1011">.cls-1{fill:#e1ebfd;fill-opacity:0.34;}.cls-2{fill:#46a3fd;opacity:0.05;}.cls-2,.cls-20,.cls-21,.cls-9{isolation:isolate;}.cls-13,.cls-3{fill:#fc3;}.cls-4{fill:#2b3554;}.cls-5{fill:#fff;}.cls-6{fill:#94c3ff;}.cls-7{fill:#4385ff;}.cls-8{fill:#ecf2f8;}.cls-9{fill:#a1c2ff;}.cls-20,.cls-9{opacity:0.39;}.cls-10,.cls-15,.cls-19,.cls-20,.cls-21,.cls-22,.cls-25{fill:none;}.cls-10,.cls-25{stroke:#ecf2f8;}.cls-10,.cls-12,.cls-13,.cls-14,.cls-15,.cls-19,.cls-20,.cls-21,.cls-22,.cls-25{stroke-miterlimit:10;}.cls-10,.cls-12,.cls-13,.cls-14{stroke-width:2px;}.cls-11{fill:#5979e8;}.cls-12{fill:#eb307e;}.cls-12,.cls-13,.cls-14,.cls-19,.cls-24{stroke:#010101;}.cls-14{fill:#51cb20;}.cls-15{stroke:#036;stroke-width:5px;}.cls-15,.cls-25{stroke-linecap:round;}.cls-16{fill:#036;}.cls-17{fill:#f9fbfc;}.cls-18{fill:#039;}.cls-20,.cls-21,.cls-22{stroke:#a1c2ff;}.cls-20,.cls-21,.cls-22,.cls-25{stroke-width:3px;}.cls-23{fill:#ccf;}.cls-24{fill:#010101;stroke-miterlimit:10;stroke-width:0.95px;}.cls-25{stroke-dasharray:14.48;}</style>
  </defs>
  <path
     class="cls-1"
     d="m 287.74172,743.97602 c -57.79,-12 -115.32,-29.8 -164.66,-62.19 -49.340002,-32.39 -90.100002,-80.84 -103.760002,-138.26 -13.6600003,-57.42 3.6,-123.53 50,-160 41.530002,-32.72 97.680002,-37.85 147.260002,-56.19 56.75,-21 105.39,-59.79 147.11,-103.61 29.87,-31.37 57.14,-65.95 92.72,-90.66 33,-22.89 71.9,-36.300001 111.54,-42.590001 29,-4.61 59.11,-5.47 87.48,2.17 28.37,7.640001 55,24.460001 70.44,49.470001 21.48,34.8 18.36,80.29 2.85,118.13 -15.51,37.84 -41.86,70 -66.51,102.63 -24.65,32.63 -48.46,67.41 -57.46,107.3 -4,17.5 -4.85,36.23 1.38,53.06 10.31,27.88 37.42,45.12 59.13,65.43 21.71,20.31 39.78,52.42 25.8,78.66 -7,13.17 -20.56,21.38 -33.73,28.4 -1.87,1 -3.76,2 -5.65,3 -108.62,56.24 -233.6,72.36 -353.37,47.52 z"
     id="path1015" />
  <path
     class="cls-2"
     d="m 182.11172,603.96602 a 598,598 0 0 0 -85.370002,-56.76 c -29.34,-16.21 -55.53,-37.86 -73.6,-65.87 -25.0000003,-38.79 -31.9500003,-91 -9.85,-131.53 12.3,-22.56 32.45,-40 54.55,-53.15 45.900002,-27.23 100.290002,-37 147.050002,-62.73 81.46,-44.79 131.06,-132.53 209.22,-182.840001 48.59,-31.26 106.29,-46.4900002 163.94,-50.27000024 38.09,-2.49999996 77.66,0.1 111.93,16.92000024 51.15,25.12 83.43,79.23 95,135.000001 8.13,39.18 7.26,80.67 -6.1,118.39 -23,65 -80,112.66 -108.47,175.49 -9.16,20.21 -15.26,43.34 -8.56,64.49 4.65,14.68 15.15,27.31 17.74,42.49 4.8,28.19 -18.67,52.91 -41.92,69.55 a 378.93,378.93 0 0 1 -465.41,-19.11 z"
     id="path1017" />
  <rect
     class="cls-3"
     x="369.73172"
     y="372.66602"
     width="90.629997"
     height="21.370001"
     id="rect1019" />
  <path
     class="cls-4"
     d="m 359.55172,625.49602 c 4.38,6.63 10.78,11.75 17.8,15.47 7.02,3.72 14.66,6.12 22.36,8.09 a 6,6 0 0 1 2.56,1.1 4,4 0 0 1 1,1.41 c 1.28,2.89 0.18,6.45 -2.09,8.65 a 13.79,13.79 0 0 1 -8.63,3.43 55.46,55.46 0 0 1 -9.45,-0.5 102,102 0 0 0 -19.92,0.07 c -4,0.41 -8,1 -12,0.84 -4,-0.16 -8.12,-1.37 -11.05,-4.11 -4.23,-3.95 -5.14,-10.75 -2.76,-16 a 54.92,54.92 0 0 1 3.18,-5.45 c 1.71,-2.85 3,-6 5.15,-8.52 2.15,-2.52 5.23,-4.61 8.54,-4.31 z"
     id="path1021" />
  <path
     class="cls-4"
     d="m 296.36172,624.60602 a 19,19 0 0 0 8.93,9.6 43.29,43.29 0 0 0 12.7,4.08 c 2.57,0.49 5.22,0.92 7.47,2.24 2.25,1.32 4.08,3.76 3.81,6.36 -0.27,2.6 -2.62,4.69 -4.94,6.08 a 32.7,32.7 0 0 1 -20.62,4.34 c -3.41,-0.42 -6.74,-1.38 -10.17,-1.58 -5.93,-0.33 -12.64,1.45 -17.31,-2.23 -2.87,-2.26 -4.08,-6.07 -4.34,-9.72 -0.36,-5 0.91,-10.33 4.2,-14.16 3.29,-3.83 8.8,-5.89 13.63,-4.42 z"
     id="path1023" />
  <path
     class="cls-5"
     d="m 308.19172,518.19602 c 2.54,5.3 1.72,11.52 0.91,17.34 q -5.37,38.36 -7.49,77.08 c -0.24,4.38 -0.45,8.77 -0.28,13.16 0.15,4.07 1.13,7.52 -1.2,10.86 a 10.06,10.06 0 0 1 -8.54,4.44 c -3.52,0 -8.19,-0.41 -11.45,-1.73 a 11,11 0 0 1 -4,-2.38 10.89,10.89 0 0 1 -2.3,-5 c -4.61,-18.65 -1.95,-38.41 -5.58,-57.27 -1.06,-5.52 -2.66,-10.94 -3.25,-16.53 -0.53,-5 -0.25,-10 -1,-14.89 -0.45,-2.86 -1.25,-5.68 -1.32,-8.57 a 31.29,31.29 0 0 1 1.56,-9.37 c 2.34,-8.15 7.57,-22.25 18.37,-20.63 8.92,1.31 21.33,4.69 25.57,13.49 z"
     id="path1025" />
  <path
     class="cls-5"
     d="m 292.11172,429.39602 c 6.55,1.12 12.32,4.85 17.78,8.62 a 411.62,411.62 0 0 1 42.86,34 c 12.54,11.38 23.57,19.27 27.36,35.78 3.32,14.36 -0.3,29.31 -3.88,43.61 -7.11,28.36 -10.35,62 -10.09,91.67 a 42,42 0 0 1 -22.71,0.13 6.54,6.54 0 0 1 -3.45,-1.84 7.12,7.12 0 0 1 -1.16,-4.1 q -3.11,-43.71 -4.86,-87.51 c -0.16,-4 -0.35,-8.16 -2.25,-11.68 -3.13,-5.77 -9.94,-8.3 -16.17,-10.37 l -20.05,-6.66 c -7.36,-2.44 -15.22,-5.24 -19.69,-11.58 -2.77,-3.92 -3.89,-8.76 -4.57,-13.5 a 92.43,92.43 0 0 1 2.33,-37.52 c 1.88,-6.88 5,-14 11.09,-17.68 z"
     id="path1027" />
  <path
     class="cls-5"
     d="m 662.58172,161.03602 c 0.06,-0.31 0.1,-0.62 0.16,-0.92 l 19.79,-5.86 a 89.12,89.12 0 0 0 -0.67,-20.17 l -20.37,-5 a 73.69,73.69 0 0 0 -2.52,-7.61 l 13.64,-15.81 a 90.51,90.51 0 0 0 -11.39,-16.850001 l -19.74,6.77 a 74.48,74.48 0 0 0 -6.14,-5.19 l 2.94,-20.76 a 88.91,88.91 0 0 0 -18.45,-8.14 l -12.8,16.17 -0.86,-0.19 a 71.22,71.22 0 0 0 -7.86,-1.08 l -8.72,-19 a 89.33,89.33 0 0 0 -19.48,2.9 l -2,20.22 a 71.17,71.17 0 0 0 -9.25,4.16 l -17.37,-11.1 a 89.78,89.78 0 0 0 -14.47,12.6 l 9.09,17.810001 a 71.59,71.59 0 0 0 -6.31,9.72 l -20.26,0.05 a 90.77,90.77 0 0 0 -4.82,16.37 c -0.1,0.53 -0.19,1.06 -0.29,1.59 l 17.13,10 a 71.52,71.52 0 0 0 0.09,12.68 l -16.8,10.8 a 90.29,90.29 0 0 0 5.5,17.52 l 19.79,-0.89 a 71.69,71.69 0 0 0 7.32,10.83 l -8.18,18 a 89.69,89.69 0 0 0 14.22,11.62 l 16.32,-11.54 a 71.24,71.24 0 0 0 11.7,4.79 l 2.87,19.61 1.43,0.29 a 90.66,90.66 0 0 0 17.16,1.66 l 7.59,-18.8 a 71.3,71.3 0 0 0 11.32,-2.24 l 13.14,15.1 a 89.9,89.9 0 0 0 17.08,-8.75 l -3.84,-20.27 a 71.5,71.5 0 0 0 7.27,-7 l 19.57,5.74 a 89,89 0 0 0 10,-17.06 l -14.38,-15.18 a 72.61,72.61 0 0 0 1.85,-7.59 z"
     id="path1029" />
  <path
     class="cls-5"
     d="m 797.31172,272.53602 c 0,-0.31 0,-0.62 0,-0.93 l 18.32,-9.52 a 89.21,89.21 0 0 0 -4.52,-19.69 l -21,-1 a 70.24,70.24 0 0 0 -3.92,-7 l 10.38,-18.12 a 90.48,90.48 0 0 0 -14.38,-14.37 l -18.08,10.39 a 70.55,70.55 0 0 0 -7,-3.92 l -1.07,-21 a 89.08,89.08 0 0 0 -19.66,-4.48 l -9.49,18.32 h -0.88 a 71.2,71.2 0 0 0 -7.91,0.45 l -12.19,-17 a 89.23,89.23 0 0 0 -18.62,6.56 l 1.9,20.22 a 70.72,70.72 0 0 0 -8.29,5.85 l -19.16,-7.6 a 90.23,90.23 0 0 0 -11.81,15.13 l 12.34,15.75 a 70.52,70.52 0 0 0 -4.35,10.82 l -19.88,3.9 a 90.54,90.54 0 0 0 -1.61,17 c 0,0.54 0,1.08 0,1.62 l 18.74,6.48 a 70,70 0 0 0 2.5,12.43 l -14.41,13.84 a 89.12,89.12 0 0 0 8.73,16.15 l 19.26,-4.64 a 71.46,71.46 0 0 0 9.25,9.24 l -4.6,19.27 a 90.42,90.42 0 0 0 16.21,8.71 l 13.83,-14.44 a 70.54,70.54 0 0 0 12.4,2.47 l 6.54,18.71 h 1.47 a 89.69,89.69 0 0 0 17.15,-1.65 l 3.88,-19.9 a 71.24,71.24 0 0 0 10.69,-4.35 l 15.78,12.33 a 90.5,90.5 0 0 0 15.12,-11.85 l -7.63,-19.17 a 71,71 0 0 0 5.81,-8.24 l 20.24,1.86 a 89.35,89.35 0 0 0 6.54,-18.64 l -17,-12.17 a 72.05,72.05 0 0 0 0.38,-7.82 z"
     id="path1031" />
  <path
     class="cls-5"
     d="m 719.81172,478.44602 c 0,-0.3 0,-0.6 0,-0.9 l 17.71,-9.21 a 86.41,86.41 0 0 0 -4.35,-19 l -20.26,-1 a 66.6,66.6 0 0 0 -3.8,-6.76 l 10,-17.52 a 87.5,87.5 0 0 0 -13.91,-13.9 l -17.5,10.06 a 70.07,70.07 0 0 0 -6.78,-3.8 l -1,-20.25 a 86.39,86.39 0 0 0 -19,-4.34 l -9.17,17.72 h -0.85 a 69.26,69.26 0 0 0 -7.66,0.43 l -11.78,-16.43 a 85.82,85.82 0 0 0 -18,6.35 l 1.8,19.5 a 69.35,69.35 0 0 0 -8,5.66 l -18.53,-7.35 a 87.58,87.58 0 0 0 -11.44,14.69 l 11.93,15.23 a 68.36,68.36 0 0 0 -4.21,10.4 l -19.22,3.77 a 87.17,87.17 0 0 0 -1.56,16.43 c 0,0.52 0,1 0,1.56 l 18.1,6.3 a 68.08,68.08 0 0 0 2.42,12 l -13.92,13.31 a 86.69,86.69 0 0 0 8.44,15.62 l 18.63,-4.48 a 69.27,69.27 0 0 0 9,8.93 l -4.45,18.63 a 86.49,86.49 0 0 0 15.64,8.42 l 13.37,-14 a 68.63,68.63 0 0 0 12,2.4 l 6.33,18.08 h 1.41 a 87.14,87.14 0 0 0 16.59,-1.59 l 3.75,-19.24 a 68.09,68.09 0 0 0 10.34,-4.21 l 15.23,12.01 a 86.81,86.81 0 0 0 14.62,-11.46 l -7.37,-18.53 a 69.23,69.23 0 0 0 5.61,-8 l 19.57,1.8 a 86.23,86.23 0 0 0 6.33,-18 l -16.45,-11.76 a 70.12,70.12 0 0 0 0.39,-7.57 z"
     id="path1033" />
  <path
     class="cls-5"
     d="m 808.54172,112.71602 a 60.75,60.75 0 0 0 -3.32,-15.730001 l -12.63,-1 a 46.43,46.43 0 0 0 -2.35,-4.41 l 6.45,-10.59 a 61.09,61.09 0 0 0 -11.5,-11.72 l -10.9,5.88 q -2,-1.24 -4,-2.33 l -0.3,-12.21 a 60.41,60.41 0 0 0 -16.16,-3.87 l -5.8,10.5 h -0.75 c -1.37,0 -2.72,0.07 -4.07,0.18 l -6.69,-9.88 a 60.28,60.28 0 0 0 -15.74,5.27 l 0.77,11.54 a 49.91,49.91 0 0 0 -4.53,3.06 l -10.69,-4.57 a 61.12,61.12 0 0 0 -10.38,12.66 l 6.71,9 a 48.55,48.55 0 0 0 -2.55,5.900001 l -11.28,1.9 a 61.12,61.12 0 0 0 -1.88,15.1 c 0,0.27 0,0.54 0,0.81 l 10.41,3.94 a 49.07,49.07 0 0 0 1.19,7.11 l -8.44,7.64 a 60.78,60.78 0 0 0 6.87,14 l 11,-2.35 a 50,50 0 0 0 5.29,5.69 l -3,11.1 a 61,61 0 0 0 13.17,7.86 l 8.25,-8.17 a 50.15,50.15 0 0 0 7.65,1.83 l 3.58,11.18 c 1.59,0.13 3.2,0.21 4.82,0.21 a 61.53,61.53 0 0 0 10.41,-0.9 l 2.62,-11.77 a 48.77,48.77 0 0 0 7,-2.54 l 9.32,7.69 a 61.33,61.33 0 0 0 12.42,-9.06 l -4.3,-11.69 a 51.25,51.25 0 0 0 4,-5.3 l 12.24,1.45 a 60.09,60.09 0 0 0 5.66,-14.62 l -10.13,-7.65 a 51,51 0 0 0 0.41,-5.7 z"
     id="path1035" />
  <path
     class="cls-5"
     d="m 851.11172,409.88602 a 60.84,60.84 0 0 0 -3.32,-15.73 l -12.63,-1 a 49,49 0 0 0 -2.35,-4.41 l 6.45,-10.59 a 61.38,61.38 0 0 0 -11.5,-11.72 l -10.94,5.96 q -2,-1.26 -4,-2.33 l -0.3,-12.22 a 60.79,60.79 0 0 0 -16.16,-3.87 l -5.8,10.51 h -0.75 c -1.37,0 -2.72,0.07 -4.07,0.18 l -6.69,-9.89 a 60.67,60.67 0 0 0 -15.74,5.28 l 0.77,11.53 a 52.06,52.06 0 0 0 -4.53,3.06 l -10.69,-4.57 a 61.17,61.17 0 0 0 -10.38,12.67 l 6.71,9 a 48,48 0 0 0 -2.54,5.83 l -11.28,1.9 a 61,61 0 0 0 -1.88,15.09 c 0,0.27 0,0.54 0,0.81 l 10.41,3.94 a 48.84,48.84 0 0 0 1.21,7.08 l -8.41,7.66 a 60.52,60.52 0 0 0 6.87,14 l 11,-2.34 a 50.85,50.85 0 0 0 5.29,5.69 l -3,11.1 a 60.93,60.93 0 0 0 13.25,7.89 l 8.25,-8.17 a 50.15,50.15 0 0 0 7.65,1.83 l 3.58,11.19 c 1.59,0.12 3.2,0.2 4.82,0.2 a 61.53,61.53 0 0 0 10.41,-0.9 l 2.62,-11.76 a 50,50 0 0 0 7,-2.54 l 9.32,7.68 a 61,61 0 0 0 12.35,-9.05 l -4.3,-11.69 a 50.2,50.2 0 0 0 4,-5.3 l 12.22,1.51 a 60.4,60.4 0 0 0 5.57,-14.66 l -10.13,-7.66 a 51,51 0 0 0 0.41,-5.7 z"
     id="path1037" />
  <path
     class="cls-6"
     d="m 662.58172,161.03602 c 0.06,-0.31 0.1,-0.62 0.16,-0.92 l 19.79,-5.86 a 89.12,89.12 0 0 0 -0.67,-20.17 l -20.37,-5 a 73.69,73.69 0 0 0 -2.52,-7.61 l 13.64,-15.81 a 90.51,90.51 0 0 0 -11.39,-16.850001 l -19.74,6.77 a 74.48,74.48 0 0 0 -6.14,-5.19 l 2.94,-20.76 a 88.91,88.91 0 0 0 -18.45,-8.14 l -12.8,16.17 -0.86,-0.19 a 71.22,71.22 0 0 0 -7.86,-1.08 l -8.72,-19 a 89.33,89.33 0 0 0 -19.48,2.9 l -2,20.22 a 71.17,71.17 0 0 0 -9.25,4.16 l -17.37,-11.1 a 89.78,89.78 0 0 0 -14.47,12.6 l 9.09,17.810001 a 71.59,71.59 0 0 0 -6.31,9.72 l -20.26,0.05 a 90.77,90.77 0 0 0 -4.82,16.37 c -0.1,0.53 -0.19,1.06 -0.29,1.59 l 17.13,10 a 71.52,71.52 0 0 0 0.09,12.68 l -16.8,10.8 a 90.29,90.29 0 0 0 5.5,17.52 l 19.79,-0.89 a 71.69,71.69 0 0 0 7.32,10.83 l -8.18,18 a 89.69,89.69 0 0 0 14.22,11.62 l 16.32,-11.54 a 71.24,71.24 0 0 0 11.7,4.79 l 2.87,19.61 1.43,0.29 a 90.66,90.66 0 0 0 17.16,1.66 l 7.59,-18.8 a 71.3,71.3 0 0 0 11.32,-2.24 l 13.14,15.1 a 89.9,89.9 0 0 0 17.08,-8.75 l -3.84,-20.27 a 71.5,71.5 0 0 0 7.27,-7 l 19.57,5.74 a 89,89 0 0 0 10,-17.06 l -14.38,-15.18 a 72.61,72.61 0 0 0 1.85,-7.59 z"
     id="path1039" />
  <path
     class="cls-6"
     d="m 797.31172,272.53602 c 0,-0.31 0,-0.62 0,-0.93 l 18.32,-9.52 a 89.21,89.21 0 0 0 -4.52,-19.69 l -21,-1 a 70.24,70.24 0 0 0 -3.92,-7 l 10.38,-18.12 a 90.48,90.48 0 0 0 -14.38,-14.37 l -18.08,10.39 a 70.55,70.55 0 0 0 -7,-3.92 l -1.07,-21 a 89.08,89.08 0 0 0 -19.66,-4.48 l -9.49,18.32 h -0.88 a 71.2,71.2 0 0 0 -7.91,0.45 l -12.19,-17 a 89.23,89.23 0 0 0 -18.62,6.56 l 1.9,20.22 a 70.72,70.72 0 0 0 -8.29,5.85 l -19.16,-7.6 a 90.23,90.23 0 0 0 -11.81,15.13 l 12.34,15.75 a 70.52,70.52 0 0 0 -4.35,10.82 l -19.88,3.9 a 90.54,90.54 0 0 0 -1.61,17 c 0,0.54 0,1.08 0,1.62 l 18.74,6.48 a 70,70 0 0 0 2.5,12.43 l -14.41,13.84 a 89.12,89.12 0 0 0 8.73,16.15 l 19.26,-4.64 a 71.46,71.46 0 0 0 9.25,9.24 l -4.6,19.27 a 90.42,90.42 0 0 0 16.21,8.71 l 13.83,-14.44 a 70.54,70.54 0 0 0 12.4,2.47 l 6.54,18.71 h 1.47 a 89.69,89.69 0 0 0 17.15,-1.65 l 3.88,-19.9 a 71.24,71.24 0 0 0 10.69,-4.35 l 15.78,12.33 a 90.5,90.5 0 0 0 15.12,-11.85 l -7.63,-19.17 a 71,71 0 0 0 5.81,-8.24 l 20.24,1.86 a 89.35,89.35 0 0 0 6.54,-18.64 l -17,-12.17 a 72.05,72.05 0 0 0 0.38,-7.82 z"
     id="path1041" />
  <path
     class="cls-6"
     d="m 719.81172,478.44602 c 0,-0.3 0,-0.6 0,-0.9 l 17.71,-9.21 a 86.41,86.41 0 0 0 -4.35,-19 l -20.26,-1 a 66.6,66.6 0 0 0 -3.8,-6.76 l 10,-17.52 a 87.5,87.5 0 0 0 -13.91,-13.9 l -17.5,10.06 a 70.07,70.07 0 0 0 -6.78,-3.8 l -1,-20.25 a 86.39,86.39 0 0 0 -19,-4.34 l -9.17,17.72 h -0.85 a 69.26,69.26 0 0 0 -7.66,0.43 l -11.78,-16.43 a 85.82,85.82 0 0 0 -18,6.35 l 1.8,19.5 a 69.35,69.35 0 0 0 -8,5.66 l -18.53,-7.35 a 87.58,87.58 0 0 0 -11.44,14.69 l 11.93,15.23 a 68.36,68.36 0 0 0 -4.21,10.4 l -19.22,3.77 a 87.17,87.17 0 0 0 -1.56,16.43 c 0,0.52 0,1 0,1.56 l 18.1,6.3 a 68.08,68.08 0 0 0 2.42,12 l -13.92,13.31 a 86.69,86.69 0 0 0 8.44,15.62 l 18.63,-4.48 a 69.27,69.27 0 0 0 9,8.93 l -4.45,18.63 a 86.49,86.49 0 0 0 15.64,8.42 l 13.37,-14 a 68.63,68.63 0 0 0 12,2.4 l 6.33,18.08 h 1.41 a 87.14,87.14 0 0 0 16.59,-1.59 l 3.75,-19.24 a 68.09,68.09 0 0 0 10.34,-4.21 l 15.23,12.01 a 86.81,86.81 0 0 0 14.62,-11.46 l -7.37,-18.53 a 69.23,69.23 0 0 0 5.61,-8 l 19.57,1.8 a 86.23,86.23 0 0 0 6.33,-18 l -16.45,-11.76 a 70.12,70.12 0 0 0 0.39,-7.57 z"
     id="path1043" />
  <path
     class="cls-6"
     d="m 808.54172,112.71602 a 60.75,60.75 0 0 0 -3.32,-15.730001 l -12.63,-1 a 46.43,46.43 0 0 0 -2.35,-4.41 l 6.45,-10.59 a 61.09,61.09 0 0 0 -11.5,-11.72 l -10.9,5.88 q -2,-1.24 -4,-2.33 l -0.3,-12.21 a 60.41,60.41 0 0 0 -16.16,-3.87 l -5.8,10.5 h -0.75 c -1.37,0 -2.72,0.07 -4.07,0.18 l -6.69,-9.88 a 60.28,60.28 0 0 0 -15.74,5.27 l 0.77,11.54 a 49.91,49.91 0 0 0 -4.53,3.06 l -10.69,-4.57 a 61.12,61.12 0 0 0 -10.38,12.66 l 6.71,9 a 48.55,48.55 0 0 0 -2.55,5.900001 l -11.28,1.9 a 61.12,61.12 0 0 0 -1.88,15.1 c 0,0.27 0,0.54 0,0.81 l 10.41,3.94 a 49.07,49.07 0 0 0 1.19,7.11 l -8.44,7.64 a 60.78,60.78 0 0 0 6.87,14 l 11,-2.35 a 50,50 0 0 0 5.29,5.69 l -3,11.1 a 61,61 0 0 0 13.17,7.86 l 8.25,-8.17 a 50.15,50.15 0 0 0 7.65,1.83 l 3.58,11.18 c 1.59,0.13 3.2,0.21 4.82,0.21 a 61.53,61.53 0 0 0 10.41,-0.9 l 2.62,-11.77 a 48.77,48.77 0 0 0 7,-2.54 l 9.32,7.69 a 61.33,61.33 0 0 0 12.42,-9.06 l -4.3,-11.69 a 51.25,51.25 0 0 0 4,-5.3 l 12.24,1.45 a 60.09,60.09 0 0 0 5.66,-14.62 l -10.13,-7.65 a 51,51 0 0 0 0.41,-5.7 z"
     id="path1045" />
  <path
     class="cls-6"
     d="m 851.11172,409.88602 a 60.84,60.84 0 0 0 -3.32,-15.73 l -12.63,-1 a 49,49 0 0 0 -2.35,-4.41 l 6.45,-10.59 a 61.38,61.38 0 0 0 -11.5,-11.72 l -10.94,5.96 q -2,-1.26 -4,-2.33 l -0.3,-12.22 a 60.79,60.79 0 0 0 -16.16,-3.87 l -5.8,10.51 h -0.75 c -1.37,0 -2.72,0.07 -4.07,0.18 l -6.69,-9.89 a 60.67,60.67 0 0 0 -15.74,5.28 l 0.77,11.53 a 52.06,52.06 0 0 0 -4.53,3.06 l -10.69,-4.57 a 61.17,61.17 0 0 0 -10.38,12.67 l 6.71,9 a 48,48 0 0 0 -2.54,5.83 l -11.28,1.9 a 61,61 0 0 0 -1.88,15.09 c 0,0.27 0,0.54 0,0.81 l 10.41,3.94 a 48.84,48.84 0 0 0 1.21,7.08 l -8.41,7.66 a 60.52,60.52 0 0 0 6.87,14 l 11,-2.34 a 50.85,50.85 0 0 0 5.29,5.69 l -3,11.1 a 60.93,60.93 0 0 0 13.25,7.89 l 8.25,-8.17 a 50.15,50.15 0 0 0 7.65,1.83 l 3.58,11.19 c 1.59,0.12 3.2,0.2 4.82,0.2 a 61.53,61.53 0 0 0 10.41,-0.9 l 2.62,-11.76 a 50,50 0 0 0 7,-2.54 l 9.32,7.68 a 61,61 0 0 0 12.35,-9.05 l -4.3,-11.69 a 50.2,50.2 0 0 0 4,-5.3 l 12.22,1.51 a 60.4,60.4 0 0 0 5.57,-14.66 l -10.13,-7.66 a 51,51 0 0 0 0.41,-5.7 z"
     id="path1047" />
  <path
     class="cls-7"
     d="m 641.23172,156.89602 a 49.54,49.54 0 1 1 -39.2,-58.070001 49.54,49.54 0 0 1 39.2,58.070001 z m -44.48,-30.84 a 21.8,21.8 0 1 0 17.25,25.56 21.8,21.8 0 0 0 -17.25,-25.56 z"
     id="path1049" />
  <path
     class="cls-7"
     d="m 775.57172,272.53602 a 49.55,49.55 0 1 1 -49.55,-49.54 49.55,49.55 0 0 1 49.55,49.54 z m -49.55,-21.8 a 21.81,21.81 0 1 0 21.81,21.8 21.81,21.81 0 0 0 -21.81,-21.8 z"
     id="path1051" />
  <path
     class="cls-7"
     d="m 698.78172,478.44602 a 47.92,47.92 0 1 1 -47.91,-47.91 47.92,47.92 0 0 1 47.91,47.91 z m -47.91,-21.05 a 21.09,21.09 0 1 0 21.09,21.09 21.09,21.09 0 0 0 -21.09,-21.09 z"
     id="path1053" />
  <path
     class="cls-7"
     d="m 783.11172,117.52602 a 35.41,35.41 0 1 1 -35.41,-35.410001 35.41,35.41 0 0 1 35.41,35.410001 z m -35.41,-14.34 a 14.35,14.35 0 1 0 14.41,14.34 14.35,14.35 0 0 0 -14.38,-14.34 z"
     id="path1055" />
  <path
     class="cls-7"
     d="m 825.67172,414.70602 a 35.41,35.41 0 1 1 -35.41,-35.41 35.41,35.41 0 0 1 35.41,35.41 z m -35.41,-14.31 a 14.35,14.35 0 1 0 14.35,14.35 14.35,14.35 0 0 0 -14.35,-14.35 z"
     id="path1057" />
  <rect
     class="cls-8"
     x="329.54172"
     y="155.23601"
     width="275.73999"
     height="187.91"
     rx="16.809999"
     id="rect1059" />
  <rect
     class="cls-9"
     x="329.54172"
     y="155.23601"
     width="275.73999"
     height="187.91"
     rx="16.809999"
     id="rect1061" />
  <rect
     class="cls-10"
     x="338.82172"
     y="161.55602"
     width="257.19"
     height="175.27"
     rx="15.68"
     id="rect1063" />
  <path
     class="cls-11"
     d="m 346.35172,155.23602 h 10.9 v 187.91 h -10.9 a 16.81,16.81 0 0 1 -16.81,-16.81 v -154.3 a 16.81,16.81 0 0 1 16.81,-16.8 z"
     id="path1065" />
  <circle
     class="cls-5"
     cx="344.10172"
     cy="172.416"
     r="6.8400002"
     id="circle1067" />
  <path
     class="cls-12"
     d="m 493.52172,198.62602 -9.75,-14.23 a 7.79,7.79 0 0 1 -9.64,0 l -9.75,14.2 a 3.24,3.24 0 0 0 2.67,5.08 h 23.8 a 3.24,3.24 0 0 0 2.67,-5.05 z"
     id="path1069" />
  <circle
     class="cls-12"
     cx="478.95175"
     cy="178.28603"
     r="7.8099999"
     id="circle1071" />
  <path
     class="cls-13"
     d="m 553.74172,291.33602 -9.76,-14.2 a 7.79,7.79 0 0 1 -9.64,0 l -9.75,14.2 a 3.25,3.25 0 0 0 2.67,5.09 h 23.85 a 3.25,3.25 0 0 0 2.63,-5.09 z"
     id="path1073" />
  <circle
     class="cls-13"
     cx="539.16168"
     cy="270.99603"
     r="7.8099999"
     id="circle1075" />
  <path
     class="cls-14"
     d="m 432.01172,291.33602 -9.75,-14.2 a 7.79,7.79 0 0 1 -9.64,0 l -9.76,14.2 a 3.25,3.25 0 0 0 2.68,5.09 h 23.8 a 3.25,3.25 0 0 0 2.67,-5.09 z"
     id="path1077" />
  <circle
     class="cls-14"
     cx="417.44174"
     cy="270.99603"
     r="7.8099999"
     id="circle1079" />
  <path
     class="cls-15"
     d="m 414.11172,244.32602 a 65.42,65.42 0 0 1 33.66,-49"
     id="path1081" />
  <path
     class="cls-15"
     d="m 540.84172,244.32602 a 65.42,65.42 0 0 0 -33.66,-49"
     id="path1083" />
  <path
     class="cls-15"
     d="m 508.17172,311.30602 a 65.38,65.38 0 0 1 -59.43,-0.5"
     id="path1085" />
  <rect
     class="cls-16"
     x="444.93173"
     y="229.36601"
     width="66.75"
     height="46.919998"
     rx="6.1300001"
     id="rect1087" />
  <rect
     class="cls-17"
     x="452.45175"
     y="234.65602"
     width="51.709999"
     height="36.349998"
     rx="4.75"
     id="rect1089" />
  <polygon
     class="cls-9"
     points="753.33,498.91 361.81,498.91 361.81,521.77 773.14,521.77 "
     id="polygon1091"
     transform="translate(-153.88828,-104.60398)" />
  <path
     class="cls-5"
     d="m 246.11172,196.49602 a 48.25,48.25 0 0 0 -6.94,-15.36 36,36 0 0 0 -12.42,-11.46 25.78,25.78 0 0 0 -11.1,-3.1 c -11.25,-0.39 -20.94,7.37 -29.49,14.7 l -2.27,53.46 c -5.47,8.07 -7.94,18.34 -8.11,28.24 -0.1,5.64 0.48,11.41 2.81,16.54 a 9.3,9.3 0 0 0 2.87,3.88 9.7,9.7 0 0 0 4.42,1.39 34.32,34.32 0 0 0 17.23,-2.39 58.12,58.12 0 0 1 4.2,-18.92 c 0.51,0.11 1,0.21 1.54,0.28 10.85,1.57 21.82,-4.44 28.4,-13.21 6.58,-8.77 9.31,-19.86 10.26,-30.77 a 69.42,69.42 0 0 0 -1.4,-23.28 z"
     id="path1093" />
  <path
     class="cls-11"
     d="m 217.32172,280.26602 c 11.76,4.73 20.23,15.29 26.29,26.43 6.06,11.14 10.25,23.24 16.64,34.2 6.39,10.96 15.55,21.09 27.68,24.78 13.76,4.19 28.47,-0.54 42.85,-1.06 a 73.29,73.29 0 0 1 35.69,7.87 30.27,30.27 0 0 0 7.84,20.54 c -9.12,3.24 -18.31,6.5 -27.89,7.94 -7.87,1.19 -15.87,1.12 -23.84,1.06 -27.45,-0.23 -55.6,-0.58 -81.2,-10.49 1.18,9.76 7,22.1 15.46,27 -7.88,19.8 -17.27,38 -36.58,47 -2.7,1.26 -5.66,2.25 -8.6,1.82 -3.16,-0.45 -5.86,-2.46 -8.38,-4.41 -11.28,-8.73 -22.42,-17.82 -31.41,-28.88 -8.99,-11.06 -15.76,-24.25 -17.13,-38.45 -0.84,-8.84 0.45,-17.73 1.85,-26.5 2.38,-14.87 5.1,-29.67 7.83,-44.48 1.87,-10.2 3.05,-23.44 9.06,-32.26 5.09,-7.48 16,-12.6 24.55,-14 a 35.87,35.87 0 0 1 19.29,1.89 z"
     id="path1095" />
  <path
     class="cls-18"
     d="m 251.02172,414.94602 c 4.13,1.93 29.28,6.83 44.18,12.84 a 7.32,7.32 0 0 1 2.87,1.74 7.19,7.19 0 0 1 1.31,3.11 134.68,134.68 0 0 1 -9.16,88.37 c -10.4,-3.55 -21.58,-4.26 -32.08,-7.51 -8.77,-2.71 -16.91,-7.15 -24.71,-12 -5,-3.12 -9.95,-6.45 -14,-10.73 -4.05,-4.28 -7.22,-9.61 -8,-15.45 -1.44,-10.24 4.41,-20.12 11.39,-27.74 6.98,-7.62 15.36,-14.07 21,-22.76 z"
     id="path1097" />
  <path
     class="cls-5"
     d="m 366.84172,371.87602 c 5.29,-3.92 10.84,-7.7 17.1,-9.74 6.26,-2.04 13.43,-2.18 19.2,1 8.25,4.53 12.33,14.85 21.52,17.9 a 4.65,4.65 0 0 1 2.8,2.41 c 1.33,2.92 -1.63,4.89 -4.21,5.59 a 22.82,22.82 0 0 1 -16,-1.53 c -3.54,-1.74 -6.93,-4.49 -10.87,-4.26 a 15.4,15.4 0 0 0 -6,2.16 l -10.37,5.47 a 12,12 0 0 1 -3.17,1.19 c -5.13,1.07 -5.62,-2.71 -7.13,-5.84 a 44,44 0 0 1 -2.24,-5.52 18.11,18.11 0 0 1 -0.62,-8.83 z"
     id="path1099" />
  <path
     class="cls-19"
     d="m 246.42172,203.20602 a 54.18,54.18 0 0 1 -12.25,52.49 c -5,5.23 -12.13,9.65 -19.1,7.75 -2.56,-0.7 -5.84,-2 -7.44,0.12 a 5.45,5.45 0 0 0 -0.74,1.71 l -2.72,9.12"
     id="path1101" />
  <path
     class="cls-20"
     d="m 216.42172,370.47602 a 63.59,63.59 0 0 0 33.61,23.83"
     id="path1103" />
  <path
     class="cls-19"
     d="m 224.32172,285.59602 c 9.33,5.67 15.89,15 20.88,24.71 4.99,9.71 8.68,20.09 13.91,29.7 5.23,9.61 12.15,18.7 21.81,23.81 12.48,6.6 28.62,2.66 42.67,1.36 14.05,-1.3 27.69,0.31 40.5,6.22"
     id="path1105" />
  <path
     class="cls-19"
     d="m 352.11172,368.87602 a 30.7,30.7 0 0 0 -0.94,15.24 21.54,21.54 0 0 0 8,12.83"
     id="path1107" />
  <polygon
     class="cls-7"
     points="885.76,146.1 879.91,147.39 885.7,145.77 "
     id="polygon1109"
     transform="translate(-153.88828,-104.60398)" />
  <path
     class="cls-7"
     d="m 743.70172,39.396019 c 2,-0.07 4,-0.23 6,-0.19 2,0.04 4,0.12 6,0.3 l -0.13,1.21 q -3,-0.33 -5.94,-0.44 c -2,-0.09 -4,0 -6,0 z"
     id="path1111" />
  <path
     class="cls-7"
     d="m 767.71172,41.456019 a 71.83,71.83 0 0 1 11.49,3.86 l -0.7,1.6 a 83,83 0 0 0 -11.18,-4 z"
     id="path1113" />
  <path
     class="cls-7"
     d="m 789.93172,50.956019 a 78,78 0 0 1 9.75,7.22 l -1.28,1.46 a 78,78 0 0 0 -9.45,-7.13 z"
     id="path1115" />
  <path
     class="cls-7"
     d="m 808.18172,66.836019 a 77.72,77.72 0 0 1 7,9.89 l -1.57,1 a 78.93,78.93 0 0 0 -6.95,-9.6 z"
     id="path1117" />
  <path
     class="cls-7"
     d="m 820.64172,87.566019 a 72.09,72.09 0 0 1 3.63,11.56 l -1.49,0.36 a 84.81,84.81 0 0 0 -3.75,-11.25 z"
     id="path1119" />
  <path
     class="cls-7"
     d="m 826.02172,111.08602 0.17,6 c 0,1 -0.08,2 -0.12,3 l -0.17,3 -0.85,-0.06 v -3 c 0,-1 0.07,-2 0,-3 l -0.32,-6 z"
     id="path1121" />
  <polygon
     class="cls-7"
     points="977.43,239.55 977.76,239.62 976.03,245.38 "
     id="polygon1123"
     transform="translate(-153.88828,-104.60398)" />
  <path
     class="cls-7"
     d="m 790.95172,29.756019 q 2.83,1 5.65,2.09 l -0.28,0.58 c -1.79,-0.87 -3.58,-1.75 -5.37,-2.67 z"
     id="path1125" />
  <path
     class="cls-7"
     d="m 807.98172,37.976019 q 2.71,1.78 5.23,3.83 c 1.69,1.36 3.33,2.79 4.88,4.3 l -1.36,1.39 c -1.51,-1.48 -3,-2.93 -4.66,-4.31 -1.66,-1.38 -3.27,-2.69 -5,-3.95 z"
     id="path1127" />
  <path
     class="cls-7"
     d="m 826.59172,55.926019 c 1.28,1.75 2.45,3.57 3.55,5.44 1.1,1.87 2.13,3.77 3.05,5.73 l -1.38,0.69 c -1,-1.86 -2.07,-3.7 -3.2,-5.49 -1.13,-1.79 -2.34,-3.52 -3.59,-5.23 z"
     id="path1129" />
  <path
     class="cls-7"
     d="m 837.61172,79.236019 c 0.43,2 0.86,3.93 1.24,5.89 -0.65,-1.9 -1.26,-3.8 -1.86,-5.7 z"
     id="path1131" />
  <path
     class="cls-7"
     d="m 803.11172,187.91602 c 2,1.38 4,2.75 5.94,4.17 l -0.32,0.39 c -1.91,-1.49 -3.76,-3.03 -5.62,-4.56 z"
     id="path1133" />
  <path
     class="cls-7"
     d="m 820.35172,202.39602 2.54,2.89 c 0.84,1 1.64,2 2.44,3 1.58,2 3.09,4.1 4.51,6.23 l -1.55,1 q -2,-3.22 -4.22,-6.27 c -0.74,-1 -1.5,-2 -2.3,-3 l -2.4,-2.93 z"
     id="path1135" />
  <path
     class="cls-7"
     d="m 837.24172,227.97602 a 91,91 0 0 1 5.06,14.57 l -2.3,0.58 a 98.39,98.39 0 0 0 -4.78,-14.27 z"
     id="path1137" />
  <path
     class="cls-7"
     d="m 844.88172,257.75602 a 91.27,91.27 0 0 1 0,15.42 l -2.21,-0.17 a 98.2,98.2 0 0 0 -0.17,-15.05 z"
     id="path1139" />
  <path
     class="cls-7"
     d="m 842.35172,288.39602 a 93.63,93.63 0 0 1 -5,14.51 l -1.24,-0.51 a 92.7,92.7 0 0 0 4.46,-14.44 z"
     id="path1141" />
  <path
     class="cls-7"
     d="m 829.86172,316.26602 c -1.43,2 -2.89,3.89 -4.33,5.82 1.3,-2 2.58,-4.08 3.9,-6.1 z"
     id="path1143" />
  <polygon
     class="cls-7"
     points="641.27,215.19 638.62,223.49 640.8,215.03 "
     id="polygon1145"
     transform="translate(-153.88828,-104.60398)" />
  <path
     class="cls-7"
     d="m 493.33172,94.146019 2,-3.9 c 0.66,-1.31 1.39,-2.57 2.13,-3.84 q 2.24,-3.78 4.76,-7.39 l 1.48,1.08 q -2.58,3.47 -4.9,7.13 c -1.57,2.43 -2.93,5 -4.39,7.48 z"
     id="path1147" />
  <path
     class="cls-7"
     d="m 513.43172,65.456019 a 108.55,108.55 0 0 1 13.23,-11.65 l 1.52,2.07 a 116.44,116.44 0 0 0 -13.14,11.17 z"
     id="path1149" />
  <path
     class="cls-7"
     d="m 541.56172,44.396019 a 114.88,114.88 0 0 1 16.21,-7 l 0.92,2.71 a 112.61,112.61 0 0 0 -15.84,6.74 z"
     id="path1151" />
  <path
     class="cls-7"
     d="m 574.87172,33.016019 a 115,115 0 0 1 17.57,-1.68 l 0.06,2.79 a 113.11,113.11 0 0 0 -17.13,1.71 z"
     id="path1153" />
  <path
     class="cls-7"
     d="m 610.05172,32.446019 a 108.67,108.67 0 0 1 17.19,3.85 l -0.65,2.18 a 116.1,116.1 0 0 0 -16.89,-3.48 z"
     id="path1155" />
  <path
     class="cls-7"
     d="m 643.58172,42.806019 c 2.63,1.3 5.21,2.7 7.72,4.2 1.26,0.76 2.47,1.58 3.7,2.37 l 3.66,2.41 -0.69,1 -3.73,-2.23 c -1.24,-0.73 -2.46,-1.51 -3.71,-2.22 q -3.79,-2.1 -7.74,-3.9 z"
     id="path1157" />
  <polygon
     class="cls-7"
     points="825.66,167.94 825.99,167.58 831.97,173.95 "
     id="polygon1159"
     transform="translate(-153.88828,-104.60398)" />
  <path
     class="cls-7"
     d="m 837.11172,350.67602 a 73.69,73.69 0 0 1 11.13,9.3 l -0.56,0.53 a 84.13,84.13 0 0 0 -10.57,-9.83 z"
     id="path1161" />
  <path
     class="cls-7"
     d="m 857.44172,371.25602 c 1.34,2 2.6,4.11 3.76,6.26 0.58,1.07 1.14,2.15 1.67,3.25 l 1.52,3.33 -1.64,0.68 -1.39,-3.3 c -0.49,-1.09 -1,-2.17 -1.55,-3.24 -1.07,-2.13 -2.25,-4.22 -3.51,-6.25 z"
     id="path1163" />
  <path
     class="cls-7"
     d="m 868.90172,398.02602 a 79.12,79.12 0 0 1 1.83,14.55 l -2.32,0.06 a 78.63,78.63 0 0 0 -1.58,-14.17 z"
     id="path1165" />
  <path
     class="cls-7"
     d="m 869.80172,427.22602 a 78.22,78.22 0 0 1 -3.61,14.22 l -2.23,-0.79 a 81.66,81.66 0 0 0 3.48,-13.81 z"
     id="path1167" />
  <path
     class="cls-7"
     d="m 860.04172,454.76602 a 80.33,80.33 0 0 1 -8.51,11.94 l -1.57,-1.33 a 77.3,77.3 0 0 0 8.1,-11.74 z"
     id="path1169" />
  <path
     class="cls-7"
     d="m 840.95172,476.81602 a 81.1,81.1 0 0 1 -12.22,8 l -0.6,-1.09 a 78.45,78.45 0 0 0 11.77,-8.17 z"
     id="path1171" />
  <path
     class="cls-7"
     d="m 815.26172,490.29602 a 73.28,73.28 0 0 1 -10,2.32 87.53,87.53 0 0 0 9.85,-2.87 z"
     id="path1173" />
  <path
     class="cls-21"
     d="m 251.02172,414.94602 c 15.67,1.31 34.3,9.93 47.73,15.68"
     id="path1175" />
  <path
     class="cls-22"
     d="m 214.92172,457.50602 c 3.61,-7.71 11.53,-12.26 17.86,-18 4.71,-4.25 15.69,-19.81 18.69,-25.4"
     id="path1177" />
  <rect
     class="cls-23"
     x="162.28174"
     y="521.00598"
     width="16.42"
     height="143.09"
     id="rect1179" />
  <path
     class="cls-23"
     d="m 171.21517,649.81005 67.96287,21.68972 a 9.21,9.21 0 0 1 5.97387,11.57415 v 0 a 3.59,3.59 0 0 1 -4.51154,2.32858 l -73.35493,-23.41055 3.89162,-12.19406 z"
     id="path1181" />
  <path
     class="cls-23"
     d="m 170.49172,649.16602 h 53 a 8.07,8.07 0 0 1 8.07,8.07 v 1.58 a 3.15,3.15 0 0 1 -3.15,3.15 h -58 v -12.8 z"
     id="path1183" />
  <path
     class="cls-23"
     d="m 170.49172,661.96602 h -58 a -3.15,-3.15 0 0 1 -3.15,-3.15 v -1.58 a -8.07,-8.07 0 0 1 8.07,-8.07 h 53 v 12.8 z"
     id="path1185" />
  <path
     class="cls-23"
     d="m 173.32147,662.32218 -74.667031,18.81048 a 3.59,3.59 0 0 1 -4.358237,-2.60422 v 0 a 9.21,9.21 0 0 1 6.681018,-11.18088 l 69.21731,-17.43757 z"
     id="path1187" />
  <path
     class="cls-23"
     d="m 54.161718,484.90602 c 16.95,33.3 48.580002,58.19 84.160002,69.6 35.58,11.41 74.73,9.82 110.29,-1.67 7.9,-2.55 16,-5.81 21.38,-12.13 8,-9.4 8.1,-23.28 5.25,-35.3 -1.22,-5.13 -3,-10.29 -6.4,-14.27 -3.16,-3.67 -7.5,-6.07 -11.69,-8.49 -29.73,-17.19 -57.25,-40.31 -72.6,-71 -7.83,-15.67 -12.5,-33.26 -23.79,-46.67 a 58.89,58.89 0 0 0 -26.93,-18.06 c -10.56,-3.39 -21.86,-3.71 -32.92,-2.89 -10.000002,0.75 -20.200002,2.5 -28.890002,7.55 -14.22,8.26 -21.62,28.94 -26.22,44 a 119.35,119.35 0 0 0 -2.42,58.37 121.91,121.91 0 0 0 10.78,30.96 z"
     id="path1189" />
  <path
     class="cls-24"
     d="m 251.50172,191.58602 c -2,-6.62 -4.82,-13.19 -9.54,-18.25 -5.87,-6.3 -13,-6.18 -20.08,-9.34 a 35.64,35.64 0 0 0 -24.17,-2.18 c -16.57,4.19 -29.76,17.12 -38.48,31.82 -8.72,14.7 -13.65,31.25 -19.25,47.39 -5.6,16.14 -12.14,32.37 -23.37,45.25 -15,17.13 -38.060002,28.3 -45.660002,49.73 -5.66,16 -1,34 7.43,48.7 l 6.43,8.69 c 8.65,12.86 22.640002,21.7 37.710002,25.33 15.07,3.63 31.09,2.25 45.83,-2.54 8.28,-2.7 16.38,-6.56 22.57,-12.7 10.44,-10.34 14.17,-26 13.34,-40.65 -0.83,-14.65 -5.7,-28.77 -10.27,-42.75 -4.57,-13.98 -8.94,-28.31 -8.75,-43 0.38,-29.38 18.7,-55.35 38.46,-77.08 1.46,-1.6 3,-3.23 4.3,-4.95 a 4.38,4.38 0 0 0 2.37,1.65 c 2.09,0.38 3.69,-1.77 4.71,-3.64 a 9.48,9.48 0 0 0 2.81,4.29 c 1.41,1 3.7,1 4.58,-0.52 0.53,-0.91 0.5,-2.23 1.41,-2.76 1.22,-0.72 2.57,0.74 3.1,2 0.53,1.26 1.26,3 2.67,2.93 a 2.27,2.27 0 0 0 1.65,-0.95 c 1.39,-1.75 0.86,-4.31 0.2,-6.47 z"
     id="path1191" />
  <line
     class="cls-25"
     x1="344.10172"
     y1="195.34602"
     x2="344.10172"
     y2="318.19601"
     id="line1193" />
</svg>
